<svg xmlns="http://www.w3.org/2000/svg" display="block" preserveAspectRatio="none" viewBox="0 0 2048 2048">
  <defs>
    <linearGradient id="d" x1="920.918" x2="588.173" y1="1763.66" y2="1734.19" gradientUnits="userSpaceOnUse">
      <stop class="stop0" offset="0" stop-color="#e63d01"/>
      <stop class="stop1" offset="1" stop-color="#fa7503"/>
    </linearGradient>
    <linearGradient id="c" x1="329.844" x2="204.677" y1="1630.79" y2="1468.59" gradientUnits="userSpaceOnUse">
      <stop class="stop0" offset="0" stop-color="#e53700"/>
      <stop class="stop1" offset="1" stop-color="#ff8004"/>
    </linearGradient>
    <linearGradient id="b" x1="1406.25" x2="1695.17" y1="1770.95" y2="1532.3" gradientUnits="userSpaceOnUse">
      <stop class="stop0" offset="0" stop-color="#e53b02"/>
      <stop class="stop1" offset="1" stop-color="#fc7901"/>
    </linearGradient>
    <linearGradient id="a" x1="1762.57" x2="535.097" y1="1137.86" y2="395.464" gradientUnits="userSpaceOnUse">
      <stop class="stop0" offset="0" stop-color="#f65c01"/>
      <stop class="stop1" offset="1" stop-color="#ff9e02"/>
    </linearGradient>
  </defs>
  <path fill="#310d2a" d="M383.869 962.087c7.391.979 21.56 7.63 27.73 1.966 11.162-10.248 5.137-38.669 3.632-52.624a2717 2717 0 0 1-5.604-56.531c-5.351-62.373-7.959-127.02-.936-189.256 18.621-165.012 98.624-312.805 234.034-410.699 150.117-108.526 334.819-133.914 514.765-105.086 26.62 4.306 53.86 12.333 79.74 19.981 117.95 36.205 221.76 107.816 293.46 208.776a538.8 538.8 0 0 1 68.79 131.138c28.08 80.468 33.79 177.956 31.23 262.686-3.69 73.398-12.38 145.543-10.69 219.204 1.34 58.518 4.52 118.948 15.13 176.868 10.86 59.29 27.71 118.47 15.7 179.48-1.44 7.29-4.39 14.45-5.3 21.85-2.84 24.28 34.77 25.1 49.29 17.26 34.35-19.57 39.96-58 44.44-93.56 2.55-20.32 7.57-42.32 12.06-62.29 9.46-40.33 29.86-83.84 66.93-105.71 29.67-17.51 81.09-24.78 101.31 10.46.11 29.21-6.26 26.82-19.68 49.15-33.7 56.03-1.09 115.77 11.41 170.54 13.21 57.85 5.37 122.27-26.81 172.57-22.17 34.65-63.75 69.87-104.15 78.97 11.56 12.49 24.85 22.55 35.54 34.42 28.21 32.49 40.71 73.72 38.82 116.82-1.77 40.01-30.33 86.08-75.23 84.56-29.09-.98-31.27-31.49-45.23-45.88-32.6-33.63-95.83-22.94-139.13-25.78-18.94-.95-37.76-3.61-56.22-7.96-4.1-.79-6.74-1.64-10.75-2.9-26.71-11.64-42.43-15.62-68.5-33.54-41.91 10.04-74.39 11.78-114.9-3.26l-2.96-1.56-1.26.47c1.13 3.34 1.14 3.14 3.4 5.9 24.7 28.47 41.97 32.83 78.77 35.33.74.05 1.48.1 2.22.14 6.23 4.97 16.4 13.23 15.95 21.41-2.85 52.05-55.7 77.14-99.49 89.98-9.96 2.92-21.62 2.49-29.11 5.36-5.21.31-10.24.66-15.42 1.31-21.04 2.61-41.07.7-61.96-.3-11.4-2.47-24.47-3.23-35.26-5.93-86.92-21.77-155.24-71.1-184.05-159.38-3.74-16.54-4.66-25.21-5.88-41.85-6.23.46-18.021 2.64-23.92 4.59-4.776.63-8.209 1.69-12.463 2.35-2.251.42-4.625.79-6.82 1.39-2.124.33-5.458.4-6.229 2.77-20.643 63.58-57.486 107.31-122.168 135.32-17.561 7.49-65.295 21.42-84.226 22.39-8.767.14-27.646.88-36.144-.1-58.916-6.8-117.587-22.22-162.269-63.61-4.477-4.15-7.205-9.93-11.547-12.35-4.472.33-7.419 2.18-11.398 2.85-16.817 2.84-42.953 4.74-41.348 28.05.513 7.45 6.129 11.4 10.206 17.21 3.091 4.01 6.115 7.8 9.123 11.97.251 5.51.689 11.58.477 17.05-10.145 17.65-23.01 26.89-43.88 28.84-5.239 1.28-9.332 2.07-14.711 1.94-128.749-3.23-199.678-138.12-114.093-240.11 1.202-1.43.761.05.899-2.33-6.799-4.39-21.822-6.63-30.248-10.93-31.023-15.99-92.33-40.38-97.337 16.1-1.324 14.93 2.2 31.46-14.916 40.53-27.268 13.81-56.643-14.42-69.779-36.07-49.044-80.82-2.297-193.94 89.948-216.9 49.631-12.36 77.748-3.85 125.97 11.55 6.174 1.97 18.775 4.1 24.49.67-.85-1.61-18.055-6.95-21.663-8.22-38.115-13.46-69.795-37.23-86.985-75.08-24.227-53.53.481-130.16 53.583-157.09 30.968-15.71 24.255-11.49 17.739-46.22l-15.915-83.82c-8.344-42.11-29.544-101.937 42.795-74.031 6.485-16.591 12.16-21.839 26.998-31.212"/>
  <path fill="url(#a)" d="M441.948 941.71c-2.273-16.896-3.21-34.16-4.755-51.16-5.673-63.431-10.906-128.077-7.122-191.779 6.719-113.122 42.747-219.336 111.185-309.991 94.668-125.399 232.16-199.652 386.989-220.242a748 748 0 0 1 128.465-4.99c126.81 5.605 243.85 40.532 345.49 118.34 109.55 82.245 181.2 205.296 198.64 341.172a934.4 934.4 0 0 1 6.77 139.3c-.76 24.47-3.21 50.08-4.84 74.603-4.19 62.926-9.22 129.768-6.53 192.767 2.13 43.17 6.75 86.19 13.84 128.84 8.53 50.33 20.62 98.18 19.25 149.82-1.88 70.5-34.37 143.31-111.85 153.35-66.68 8.63-138.06-17.76-191.8-56.55-21.06-15.47-33.72-32.76-38.76-58.2-4.91-66.58 69.55-72.19 117.31-68.02 10.78.94 33.04 2.52 42.49-.6 31-17.9 16.94-45.05-6.45-24.35-3.65 2.99-14.09 1.9-19.02 1.25-21.95-2.89-59.49-5.8-80.62 1.07-2.32-1.83-2.28-2.07-2.56-6.26-1-14.99-1.8-30.09-2.77-45.08l-5.61-77.39c-1.12-15.34-1.37-30.98-3.83-46.1-2.52-15.53-13.83-22.58-28.94-20.75-1.6.2-3.2.41-4.8.64-14.64-21.81-24.83-28.91-51.01-31.83 3-36.998-26.47-29.4-50.66-25.02-11.09 2.01-22.78 3.63-33.95 5.52-40.77 7.17-81.17 16.34-121.05 27.47-14.24 3.83-38.282 9.75-51.335 14.34-72.117 25.36-173.35 67.04-228.385 121.03-9.376-14.78-19.759-31.41-30.684-45.07-63.044-78.8-151.631-132.442-243.575-171.258-13.19-5.569-26.615-9.538-39.523-14.872"/>
  <path fill="#e94901" d="M1340.63 1256.34c1.73-6.04 3.85-6.56 9.1-9.52 17.25-9.72 33.09-20.33 43.75-37.59 7.98-12.91 12.64-34.32 25.44-43.8 8.46 4.64 18.98 49.18 20.39 60.42 1.01 8.13-.08 19.45.96 28.17-3.65 2.99-14.09 1.9-19.02 1.25-21.95-2.89-59.49-5.8-80.62 1.07"/>
  <path fill="#fc8305" d="M1286.92 1346.99c-4.91-66.58 69.55-72.19 117.31-68.02 10.78.94 33.04 2.52 42.49-.6-4.09 6.62-11.63 9.33-18.93 10.91-37.81 8.23-82.72-3.48-113.92 25.32-11.17 10.31-14.79 21.91-26.95 32.39"/>
  <path fill="#03042a" d="M1225.5 516.394c49.36-5.57 109.05 12.445 148.76 42.018 98.49 73.357 117.07 227.741 42.49 324.946a222.4 222.4 0 0 1-147.59 84.884 215.43 215.43 0 0 1-161.57-43.54c-54.96-42.962-72.17-94.191-80.37-160.07-32.51-26.105-83.262-32.424-114.61-1.308-2.686 2.666-6.935 40.058-9.275 48.195-22.709 78.96-79.598 127.048-157.624 147.262-201.495 37.642-328.472-180.837-221.6-344.196 104.88-160.315 348.027-111.044 383.96 82.917 35.749-25.462 87.138-24.588 120.969 3.729 9.93-39.594 22.46-74.999 49.04-106.836 39.75-47.61 86.21-72.109 147.42-78.001"/>
  <path fill="#1c3a70" d="M1168.02 548.34c19.82-15.321 68.25-16.963 92.39-16.055 52.48 5.221 106.25 28.994 138.71 71.228 113.8 148.074 11.09 371.08-183.81 348.747a194.46 194.46 0 0 1-129.62-72.626c-62.04-78.338-59.61-212.325 14.32-286.156.8-.801 2.6-1.924 3.57-2.542 20.15-20.138 39.18-30.895 64.44-42.596"/>
  <path fill="#3a7da3" d="M1168.02 548.34c3.85-.173 22.71-5.589 27.91-6.861 25-6.124 37.46-5.754 62.98-4.529 15.86 2.204 22.76 7.783 38.25 10.1l-.18.942c-5.94.605-14.57-2.114-20.79-2.997-99.87-14.17-193.02 49.141-218.11 145.773l-1.6-2.242c5.51-28.271 13.1-50.597 29.7-74.322 5.12-7.315 13.6-15.786 17.4-23.268 20.15-20.138 39.18-30.895 64.44-42.596"/>
  <path fill="#1d4c7f" d="m1056.48 688.526 1.6 2.242c-.74 3.18-.76 3.307-2.22 6.219-.8-2.877.07-5.244.62-8.461"/>
  <path fill="#03042a" d="M1231.1 566.719c98.68-6.617 183.99 68.127 190.4 166.82 6.41 98.692-68.51 183.845-167.21 190.051-98.42 6.187-183.27-68.466-189.66-166.868s68.09-183.406 166.47-190.003"/>
  <path fill="#fc8305" d="M1091.85 807.434c-31.08-76.254-.57-163.715 71.19-204.103 71.75-40.388 162.35-21.09 211.42 45.035 49.06 66.125 41.28 158.426-18.17 215.398s-152 60.824-215.98 8.988a163.4 163.4 0 0 1-48.46-65.318"/>
  <path fill="#08041d" d="M1091.85 807.434c12.98 30.532 22.02 43.343 48.46 65.318a163.4 163.4 0 0 1-48.46-65.318"/>
  <path fill="#03042a" d="M1200.79 662.337c64.99-10.038 125.83 34.449 135.97 99.422 10.14 64.972-34.25 125.885-99.21 136.13-65.1 10.268-126.18-34.244-136.34-99.364-10.17-65.119 34.44-126.128 99.58-136.188"/>
  <path fill="#fcddac" d="M1204.73 680.387c1.3-.086 2.59-.158 3.88-.218 29.5-1.346 52.59 7.199 74.31 27.247a109.26 109.26 0 0 1 35.47 77.451c1.08 32.396-14.05 65.891-41.96 83.219-10.53 6.541-29.43 13.147-41.77 13.525 1.75-1.454 9.65-4.383 12.44-5.709 40.17-19.121 52.05-72.72 38.63-111.519-16.22-37.613-53.15-61.093-94.27-51.65a86.28 86.28 0 0 0-54.77 38.962c-15.94 26.165-14.97 51.496-7.93 80.13a101.1 101.1 0 0 1-12.67-39.05 103.3 103.3 0 0 1 21.97-77.21c17.09-21.319 39.79-32.229 66.67-35.178"/>
  <path fill="#1d4c7f" d="M1230.32 812.601c8.94-2.306 18.05 3.035 20.41 11.953 2.35 8.918-2.94 18.062-11.85 20.464-8.97 2.42-18.2-2.921-20.57-11.907s3.02-18.186 12.01-20.51"/>
  <path fill="#1c3a70" d="M673.89 537.933c13.221-3.011 36.932-4.357 50.214-2.117 37.296 2.615 63.641 15.516 92.991 37.73 99.464 75.281 109.617 243.466 13.241 326.19a201.27 201.27 0 0 1-146.713 47.651 195.6 195.6 0 0 1-134.99-70.418c-32.931-39.597-50.767-96.357-46.498-147.94.298-3.597 1.592-14.949 2.752-18.109.484-22.072 11.46-50.421 21.197-69.946 3.51-7.04 15.359-27.934 22.574-31.032 36.206-42.327 70.449-63.296 125.232-72.009"/>
  <path fill="#3a7da3" d="m673.89 537.933 36.377 1.188-.382.864-1.967 1.45 1.177 1.535c-1.868.689-1.73.754-3.672 1.027-6.19.094-23.114.028-28.267 2.771l.475 1.531c-3.678 1.324-8.917 1.801-12.981 2.824a346 346 0 0 0-33.771 10.485c-38.655 14.395-77.991 50.49-97.083 86.776-15.205 28.898-13.568 34.679-22.158 61.154-.323 3.705-.356 7.048-1.761 10.481l-1.279-.23c-1.178-6.458 1.989-11.178.404-15.244-1.551 2.399-1.761 2.905-2.867 5.559l-1.248.816c.484-22.072 11.46-50.421 21.197-69.946 3.51-7.04 15.359-27.934 22.574-31.032 36.206-42.327 70.449-63.296 125.232-72.009"/>
  <path fill="#1d4c7f" d="M504.887 710.92c.484-22.072 11.46-50.421 21.197-69.946 3.51-7.04 15.359-27.934 22.574-31.032-15.726 26.818-32.381 51.973-36.314 83.824-.671 5.437-2.287 10.443-.706 15.772-.323 3.705-.356 7.048-1.761 10.481l-1.279-.23c-1.178-6.458 1.989-11.178.404-15.244-1.551 2.399-1.761 2.905-2.867 5.559z"/>
  <path fill="#5088a9" d="M709.885 539.985c12.35.256 35.606 8.589 46.648 14.484-9.378-2.392-15.798-4.314-25.55-5.856-4.272-.676-14.92-1.773-18.298-2.628-2.658-.944-4.541-1.332-7.262-1.988 1.942-.273 1.804-.338 3.672-1.027l-1.177-1.535z"/>
  <path fill="#74a6c1" d="M705.423 543.997c2.721.656 4.604 1.044 7.262 1.988-12.283.448-23.005 1.544-35.054 2.314l-.475-1.531c5.153-2.743 22.077-2.677 28.267-2.771"/>
  <path fill="#03042a" d="M694.596 566.426c35.537-2.804 81.683 13.272 109.359 35.547 91.887 73.955 85.613 234.614-16.541 296.753-27.02 16.435-49.462 21.992-80.671 25.066-158.306 3.249-231.499-189.225-131.097-301.141a169.58 169.58 0 0 1 118.95-56.225"/>
  <path fill="#fc8305" d="M697.039 586.812c87.809-1.695 160.384 68.077 162.149 155.884s-67.947 160.439-155.753 162.275c-87.906 1.838-160.638-67.972-162.406-155.879-1.767-87.907 68.102-160.584 156.01-162.28"/>
  <path fill="#03042a" d="M707.277 662.075c64.669-5.713 121.701 42.136 127.314 106.813 5.613 64.678-42.323 121.636-107.009 127.15-64.546 5.501-121.353-42.309-126.954-106.845-5.601-64.537 42.121-121.418 106.649-127.118"/>
  <path fill="#fcddac" d="M709.714 678.372c11.111-1.575 29.599.883 39.907 4.975 59.622 23.665 78.694 84.142 58.851 139.746.732-7.887 1.789-16.287 1.71-24.155-.917-91.918-111.079-123.307-158.271-41.667-6.044 13.886-7.906 31.538-6.88 46.692 2.122 31.343 20.027 51.707 45.372 68.207 5.809 3.782 13.642 4.995 15.841 6.92-13.388 6.229-38.821-10.881-49.002-18.456-72.896-54.233-35.582-171.96 52.472-182.262"/>
  <path fill="#1d4c7f" d="M761.185 806.488c8.897-.915 16.955 5.287 18.35 14.12 1.396 8.834-4.36 17.217-13.104 19.089a16.836 16.836 0 1 1-5.246-33.209"/>
  <path fill="#1c3a70" d="M927.828 705.834a60 60 0 0 1 7.912-4.91 52.83 52.83 0 0 1 40.12-3.646c16.87-.751 35.2 10.445 47.78 20.99 8.6 7.205 5.59 18.68 2.85 28.065-72.466-47.957-110.193 3.019-121.85-1.233-3.796-4.741-1.851-6.235-2.441-11.572-.961-8.693 18.358-25.6 25.629-27.694"/>
  <path fill="#3a7da3" d="M927.828 705.834a60 60 0 0 1 7.912-4.91 52.83 52.83 0 0 1 40.12-3.646c10.892 4.271 15.653 8.115 24.83 15.058-27.301-10.576-41.658-10.241-69.1-2.415-.408.117-3.293-3.415-3.762-4.087"/>
  <path fill="#feb211" d="M767.024 281.403c9.536-.006 16.433 2.19 24.435 7.034 9.217 14.646 4.61 26.881-5.884 39.266-21.341 25.185-60.632 47.348-93.391 50.208-9.229.135-20.616.638-28.131-5.511a14.97 14.97 0 0 1-5.584-11.148c-.464-10.739 10.987-28.396 18.224-36.069 22.93-24.312 57.013-41.845 90.331-43.78"/>
  <path fill="#03042a" d="M902.419 907.834c17.167.676 23.185 36.511 52.778 42.011 21.008 4.629 42.901-.647 57.423-17.203 4.82-5.497 17.09-26.814 26.02-21.615 11.08 6.454 6.13 18.527.74 26.98-21.9 26.748-47.951 42.979-83.679 36.411a85.52 85.52 0 0 1-55.07-36.087c-7.487-11.232-10.939-22.265 1.788-30.497"/>
  <path fill="#feb211" d="M613.626 392.019c21.268 1.446 17.701 31.408-2.472 34.007-17.955-.193-17.013-11.009-12.258-25.044 4.979-4.647 8.323-6.791 14.73-8.963"/>
  <path fill="#3c2971" d="M812.943 1205.76c-1.963-5.74-3.673-8.56-1.559-14.16 6.026-6.76 58.02-18 69.084-20.73a6739 6739 0 0 1 80.511-19.82 9780 9780 0 0 1 246.051-52.46c11.71-2.27 89.5-19.91 95.98-16.63 2.66 2.69 2.92 5.22 3.93 8.91.08 18.38 3.13 38.84 4.26 57.45 2.33 38.14 6.84 77.92 9.13 115.84-14.99 7.55-24.65 12.87-36.78 24.7-3.71 4.15-7.3 8.31-11.38 12.11-6.32 13.47-12.52 38.23-7.03 52.6.34 2.79.9 5.34.31 8.05 2.5 2.61 6.74 14.88 9.46 19.36 12.79 21.1 31.23 38.1 51.72 51.26.05 18.32 2.31 41.15 3.46 59.76l5.67 95.23c-14.62 5.84-57.3 12.44-74.76 15.66l-123.07 23.58-182.725 35.79-55.387 10.95c-9.336 1.84-19.481 4.31-28.898 5.21-11.697 1.12-13.616-6.46-14.6-15.62q-9.296-92.64-17.349-185.4l-13.813-142.3a7661 7661 0 0 0-8.564-86.45c-1.099-10.91-4.006-32.95-3.651-42.89"/>
  <path fill="#734b8b" d="M812.943 1205.76c-1.963-5.74-3.673-8.56-1.559-14.16 6.026-6.76 58.02-18 69.084-20.73a6739 6739 0 0 1 80.511-19.82 9780 9780 0 0 1 246.051-52.46c11.71-2.27 89.5-19.91 95.98-16.63 2.66 2.69 2.92 5.22 3.93 8.91-1.23 3.17-.56 3.42-3.57 4.58-5.41 2.09-12.03 2.31-17.58 3.49l-98.83 20.44c-39.32 8-78.58 16.34-117.75 25.02a4417 4417 0 0 0-178.228 40.72c-15.75 4.16-31.529 8.22-47.335 12.16-8.398 2.12-23.044 5.49-30.704 8.48"/>
  <path fill="#fcddac" d="M1236.62 1197.57c4.96-.95 9.76-2.23 14.6-1.14 4.64 5.15 29.5 81.16 32.33 92.43-3.71 4.15-7.3 8.31-11.38 12.11-3.94-4.4-6.41-11.2-8.75-16.7-8 2.04-14.79 2.99-22.96 4.22-.72 3.81-1.71 11.35-3.48 14.43-2.67 4.64-10.74 6.07-15.2 3.27-1.86-7.13 11.98-95.68 14.84-108.62"/>
  <path fill="#3c2971" d="M1247.13 1231.65c2.88 2.81 9.43 28.74 9.82 34.81.07 1.09-1.77 1.72-2.63 2.23-3.42.82-7.41 1.98-10.54.56-.49-4.26 2.76-31.24 3.35-37.6"/>
  <path fill="#74a6c1" d="M1265.45 1361.62c-1.89 6.04 1.74 28.28 1.48 37.78-1.6 2.51-.52 1.65-3.44 2.59l-1.69-.91c-2.75-10.72-1.44-22.1-3.37-32.88-1.09-6.07-6.08-4.29-8.23-8.49l.78-2.04c4.55-2.53 9.03-3.05 14.16-4.1.34 2.79.9 5.34.31 8.05"/>
  <path fill="#fcddac" d="M932.99 1254.13c4.063-.26 9.835-.82 13.588.82 20.867 9.13 26.23 40.13 26.121 60.13-.121 21.95-4.495 38.65-25.793 47.83-43.202 4.31-47.981-67.13-33.472-94.34 4.646-8.72 10.443-12.11 19.556-14.44"/>
  <path fill="#3c2971" d="M934.856 1274.71c6.202.46 9.767 2.86 12.764 8.52 7.867 14.88 14.277 51.25-2.94 61.31-21.73-7.28-25.616-55.8-9.824-69.83"/>
  <path fill="#fcddac" d="M1096.98 1222.27c24.55-2.38 34.02 9.96 39.38 32.71 5.9 25.02 7.04 57.93-17.77 73.46-33.52 8.67-41.75-31.52-42.62-56.02-.68-19.26 1.82-40.65 21.01-50.15"/>
  <path fill="#3c2971" d="M1102.1 1241.69c23.83-.68 25.51 55.09 11.51 68.44-22.78-4.52-27.57-53.86-11.51-68.44"/>
  <path fill="#fcddac" d="M1166.34 1209.31c30.5-2.45 41.45 14.32 36.92 43.3-1.33 8.49-4.29 11.83-9.41 18.26 4.11 14.41 15.71 25.73 16.08 35.58-.96 2.23-.88 3.17-3.25 4.44-14.22 7.64-20.94-13.67-26.06-24.09-2.78-4.66-3.8-7.63-8.84-8.93l-1.79 1.48c-2.4 8.67 1.63 26.95 2.25 37.97-5.25 1.31-10.07 1.97-15.39 2.79-3.06-11.99-5.18-32.81-6.56-45.41l-6.39-59.63c8-3.2 14.05-4.41 22.44-5.76"/>
  <path fill="#3c2971" d="M1163.84 1228.28c4.85-.45 10.35-1.46 14.82 1.09 9.67 5.52 9.86 18.8 3.42 27.41-4.92 1.75-10.15 2.72-15.28 3.85-1.17-7.03-4.87-26.9-2.96-32.35"/>
  <path fill="#fcddac" d="M868.586 1268.35c30.756-3.46 38.176 28.21 28.109 51.59-4.364 10.13-18.042 14.3-28.005 17.01.837 10.76 2.954 23.5 4.77 34.15-.429 1.9-.475 1.56-1.531 3.32-4.942 2.82-7.93 3.67-13.606 2.83-3.438-3.52-3.92-14.14-4.576-18.94-1.286-9.43-11.173-78.57-7.937-82.53 4.629-5.65 15.901-6.51 22.776-7.43"/>
  <path fill="#3c2971" d="M865.153 1286.2c3.197-.32 7.79-1.22 10.389.89 9.488 7.71 8.215 19.09 1.186 27.81-3.641 2.46-4.559 3.68-8.619 1.61-4.255-6.48-6.885-23.99-2.956-30.31"/>
  <path fill="#fcddac" d="M984.99 1244.93c2.065.1 2.451.25 4.49.67 3.04 4.05 9.755 72.79 11.51 84.35 19.98-2.59 25.21-11.62 26.96 13.71-2.79.96-6.31 1.9-9.2 2.74-10.32 2.04-20.622 4.13-30.914 6.27-2.886-8.86-13.746-96.99-11.804-102.95 2.391-3.11 5.152-3.5 8.958-4.79m48.69-9.9c2.86-.22 3.56-.57 6.1.71 4.51 9.2 8.42 67.98 11.86 83.66 6.74-.33 15.81-3.7 21.01-2.17 4.67 4.07 3.99 10.47 1.97 15.86-.9 2.41-5.1 2.95-7.4 3.61-9.49 2.11-20.1 4.01-29.71 5.92-4.15-26.79-6.28-54.42-10.2-81.28-.99-6.75-2.08-14.75-2.09-21.53 1.88-2.73 5.2-3.49 8.46-4.78"/>
  <path fill="#74a6c1" d="M892.749 1421.36c2.311.3 2.208.18 4.135 1.45.666 6.34-1.405 44.07-3.44 49.04-2.693 1.78-1.25 1.42-4.481 1.1-.817-.67-1.634-1.33-2.45-2-2.1-8.9-5.501-21.44-7.974-29.83-.654 8.5 1.461 28.46-4.819 33.89-5.427-3.19-6.987-13.01-8.805-19.43-2.942-9.85-5.408-15.64-4.778-25.85l1.006-.88c5.649 4.54 9.175 19.79 11.313 27.04.673-6.16.262-28.02 5.762-30.82 5.115 3.04 9.397 20.79 11.185 26.77.392-8.48-1.474-24.55 3.346-30.48m219.531-41.47c17.76.31 16.56 25.37 14.73 38.16-.86 6.05-3.95 9.36-8.93 12.57-2.49.16-3.62-.08-6.08-.39-10.37-6.54-11.26-28.54-9.11-39.64 1.13-5.84 4.59-7.82 9.39-10.7"/>
  <path fill="#1c3a70" d="M1113.34 1387.5c9.73 4.84 10.48 28.01 3.01 36.09-8.81-4.32-10.16-27.72-3.01-36.09"/>
  <path fill="#74a6c1" d="M1134.25 1445.93c5.47-.11 8.6.05 11.65 5.19 5.51 9.33 7.56 22.63 5.07 33.15-1.15 4.87-3.72 6.97-7.9 9.18-3.98 1.24-4.51 1.41-8.62 1.69-10.23-4.56-10.11-29.38-8.37-39 .97-5.34 3.85-7.45 8.17-10.21"/>
  <path fill="#1c3a70" d="M1135.22 1453.14c11.32 4.7 12.3 25.3 5.75 34.44-.77.09-3.06.08-3.91.09-7.95-6.17-5.6-26.38-1.84-34.53"/>
  <path fill="#74a6c1" d="m1111.66 1451.45 4.87.54 1.17 1.49c.34 8.01 1.41 46.51-8.47 46.81-2.52-2.61-8.67-28.24-9.77-32.84-.58 7.45 1.24 32.64-5.2 35.61-5.08-3.06-7.51-14.4-9.34-20.47-1.63-5.58-7.71-19.26-5.31-24.02l2.71-.41c4.03 2.19 8.62 20.29 11.29 27.03.58-7.87-.57-23.48 4.67-29.26l1.88.05c5.32 5.33 7.58 20.27 9.49 28.16 1.61-9.75.79-22.08 2.01-32.69m71.95-83.04c2.03.29 2.24.42 4.22 1.02 4.68 5.69 7.98 40.87 3.12 46.55l-1.47-.72c-3.37-6.5-2.85-15.22-5.16-23.39-3.27 3.81.25 23.14-6.5 26.21-5.25-5-6.9-21.89-11.06-25.41l-.46 1.57c1.19 6.38 4.65 19.71 1.88 24.93l-2.54.76-1.59-1.2c-2.19-7.94-5.63-33.25-4.57-42.1.33-2.7 1.65-3.32 3.49-4.34l2.55.93c3.11 3.02 9.72 21.45 11.78 26.53 1.16-8.23 3.07-24.15 6.31-31.34m-142.76 94.84c2.48.83 1.79.54 3.99 1.94 3.23 5.94 7.69 41.75 2.54 46.28l-2.35-.57c-2.09-7.17-.69-15.27-2.58-23.34l-1.03.6c-3.48 8.5 1.06 19.56-6.19 24.81-6.63-2.97-6.05-19.48-10.31-24.41l-1.11 1.43c.97 5.34 4.29 25.29-3.07 26.23-.48-.61-1.25-1.29-1.26-2.14-.14-7.46-7.93-44.23 1.5-45.77 4.35 2.54 9.95 21.13 12.99 28 1.35-8.82 3.47-25.59 6.88-33.06m-108.231-49.08c25.015-1.47 12.906 10.77 17.443 26.91 2.249 8 4.54 13.37-3.022 19.19-4.688 1.21-8.839 2.68-13.617 2.41-3.56-4.32-7.004-39.06-5.098-45.85.393-1.4 2.92-2.04 4.294-2.66"/>
  <path fill="#1c3a70" d="M937.175 1440.47c4.373.52 5.11.71 7.571 4.05.59 3.94-.195 5.2-1.488 9.14-2.141.26-1.909.22-4.04.1-3.173-4.32-2.385-7.94-2.043-13.29m-1.582-19.2c4.465.69 5.407.98 7.624 4.62.069 3.54-.487 3.88-2.204 6.97-3.906.81-2.3 1.22-5.155-.33-1.608-3.33-.658-7.43-.265-11.26"/>
  <path fill="#74a6c1" d="M973.156 1406.17c9.489-.61 14.616-.74 16.986 9.85 2.412 10.79 6.343 29.14-4.007 36.32-4.089 1.7-8.651 2.81-12.943 4.01-2.334-9.46-4.582-34.55-4.105-44.93.146-3.16 1.966-3.85 4.069-5.25"/>
  <path fill="#1c3a70" d="M975.61 1413.2c1.23.31 1.927.4 2.8.71 8.829 3.17 8.362 24.63 6.274 30.94l-3.219.89-1.875-1.14c-3.66-7.39-3.593-22.67-3.98-31.4"/>
  <path fill="#74a6c1" d="M1239.6 1357.56c2.05.37 2.18.49 4.15 1.19 4.18 6.71 7.2 39.5 1.99 45.99l-1.87.17c-4.78-3.93-12.09-20.02-14.24-25.94.49 7.89 2.05 18.29 1.3 25.95-.26 2.65-2.46 3.11-4.7 4.24-1.67-3.83-4.39-35.6-4.03-41.74.19-3.07.67-4.93 3.09-6.88l2.32.72c6.46 6.38 10.37 19.65 13.65 28.5-.05-10.6-1.58-21.12-1.66-32.2m-278.323 121.58c4.484-.16 8.741-1.01 12.183 2.35 7.596 7.42 5.158 18.44-1.494 25.54l2.832 6.07c1.823 3.84 3.37 6.96 1.381 11.12-4.747-1.38-6.341-6.43-8.218-10.62-1.215-2.7-1.175-2.6-3.147-4.83-3.27 3.43 2.096 15.6-4.623 19.14l-2.762-1.21c-.451-2.07-1.192-11.2-.805-13.55 1.805-10.97-8.887-30.24 4.653-34.01"/>
  <path fill="#1c3a70" d="M966.015 1485.38c8.489 4.37 5.441 11.62.238 16.93-2.278-.63-1.56-.22-3.191-1.88-2.199-6.3-2.673-10.67 2.953-15.05"/>
  <path fill="#74a6c1" d="M1160.08 1443.32c23.71-1.85 21.3 8.78 15.21 25.86-.17.48 6.6 13.38 7.52 16.46-1.1 2.34-.33 1.3-2.85 2.73l-2.01-.62c-3.15-2.89-4.21-6.02-6.05-9.92-1.95-3.24-1.49-3.61-4.31-5.24-2.65 3.26-.39 10.8-3 17.45l-1.79.76-1.43-.83c-1.82-6.56-5.75-39.83-4.23-45.34z"/>
  <path fill="#1c3a70" d="M1162.94 1449.63c4.44.17 6.43-.03 9.49 3.39.98 3.94-.21 6.21-1.41 10.31-4.24.65-2.47 1.13-5.66-.57-2.41-3.63-2.13-8.54-2.42-13.13"/>
  <path fill="#74a6c1" d="M1007.9 1518.29c-2.93-4.58-2.59-5.51-7.976-6.31-4.541 1.43-6.702 5.02-9.829 8.82l-1.504-.16c-3.018-5.77 2.512-42.54 7.451-48.49l1.868.27c5.19 5.96 9.33 24.54 11.66 32.93 1.36 3.82 3.05 7.15 2.28 11.05-2.24 1.99-.98 1.38-3.95 1.89"/>
  <path fill="#81abcd" d="M1007.9 1518.29c-.2-4.69-.45-8.67 1.67-12.94 1.36 3.82 3.05 7.15 2.28 11.05-2.24 1.99-.98 1.38-3.95 1.89"/>
  <path fill="#1c3a70" d="m996.84 1496.03 2.91-2.28c.93 3.82 2.26 7.08.8 10.61l-1.763 1.37c-4.1-2.65-2.665-5.07-1.947-9.7"/>
  <path fill="#1d4c7f" d="M996.84 1496.03c-.09-3.51-.271-3.7.849-7.15l1.036.33 1.025 4.54z"/>
  <path fill="#74a6c1" d="M1141.87 1376.2c13.08.29 14.85 13.87 9.81 23.3-2.4 4.48-6.66 5.1-11.13 6.1.84 5.28 1.25 10.3 1.73 15.62-.41 1.43-1.06 2.1-1.93 3.42-2.12.08-1.05.22-3.19-1.27-3.15-7.01-5.02-34.7-5.9-44.13 3.6-1.37 6.88-2.1 10.61-3.04"/>
  <path fill="#1c3a70" d="M1139.45 1383.33c4.7 1.12 5.41 1.56 7.61 5.54.12 4.38-.05 4.6-1.66 8.78-8.5-.29-6.47-8.04-5.95-14.32"/>
  <path fill="#74a6c1" d="M1208.54 1433.43c7.58 3.87-4.83 17.79-4.95 24.62-.14 8.41 8.53 13.79 10.42 21.82l-1.16 1.48-2.49.04c-4.39-2.26-8.66-7.93-12.36-11.9l-.07 14.9c-1.47.34-2.93.61-4.41.9l-1.24-1.3c-.81-10.38-5.99-40.22-2.02-47.2 4.24 3.95 5.15 12.58 6.15 18.25 3.21-7.58 6.15-15.98 12.13-21.61m-166.06-40.13c4.39 1.25 3.11-.01 5.13 2.82-.84 7.8-1.65 45.04-9.31 46.97-4.52-3.19-10.48-23.08-12.68-29.38-1.8-4.6-4.82-10.18-4.26-14.72 2.4-1.62 1.07-1.25 4.2-.83 7.68 6.45 7.81 24.41 13.08 29.5 2.62-3.64-1.47-26.19 3.84-34.36m-28.96 7.1c2.82-.26 1.47-.44 4.02 1.09.49 2.31.33 1.21-.59 3.9-4.01 3.39-6.52 2.92-11.87 3.21-.02 3.84.06 7.68.22 11.51 2.64 1.37 4.15-2.32 10.27-2.31l1.52 1.57c.51 2.88.87 1.63-.65 3.92-3.87 2.42-5.88 2.46-10.47 3.35.16 3.8-.14 9.18 1.73 12.21 4.04 1.97 4.14 1.12 9.4.74 2.18 1.14 2.4 2.09 2.4 4.23-2.83 3.99-12.94 5.58-17.95 6.77-2.248-15.57-3.342-32.02-4.178-47.72 5.048-.92 11.008-1.69 16.148-2.47m195.02-36.23c2.75-.33 3.08-.66 5.59.29 1.55 3.44 1.21 1.67.85 5.54-3.66 3.01-5.59.39-10.37 3.78-.89 3.07-.55 3.68-.1 6.84 2.74 2.32 4.54.44 10.26 1.11 1.97 2.77 1.46 1.28 1.62 4.64-1.99 2.66-5.9 3.36-9.27 4.42-2.36 2.68-2.17 2.79-2.92 6.15 2.27 7.79 6.69 6.67 12.78 5.42l1.28 1.6c1.18 7.33-10.8 8.14-16.74 9.55-2.47-9.97-4.64-35.79-5.11-46.26zm-291.92 54.16c3.355-.45 3.664.21 5.579 2.53l-.492 2c-2.922 3.2-6.078 1.94-11.115 4.79-1.727 3.95-1.54 2.03-1.148 5.91 3.433 3.13 5.976.57 11.029 2.94.557 3.4.851 1.89-.554 4.74-3.606 1.12-4.577 1.11-7.04 4.02-1.735 4.11-.66 8.14-.109 12.75 4.624-1 8.602-1.57 13.253-2.22l-.237 4.22c-3.527 5.65-11.581 6.28-18.336 7.87-2.474-15.66-2.77-29.21-5.932-45.94 6.24-2.03 8.736-2.53 15.102-3.61m153.03-27.93 1.23.06 1.54 1.9c.18 4.03.86 2.48-1.42 5.06-3.62.79-6.76.97-9.3 3.47-2.89 12.11 4.41 4.93 10.81 8.08l.27 2.75c-3.81 8.41-12.21-2.84-8.58 19.58l11.26-2.46c1.2 4.02 1.81 3.68-.16 6.81-4.17 2.71-10.49 3.16-15.63 4-3.15-10.96-5.77-35.87-5.74-46.85zm-5.36 70.83c4.5-.56 7.11-1.61 10.11 2.12-2.71 7.39-7.43 2.36-12.54 6.67-.32 4.26-.39 4.28.44 8.42l1.59.6c3.29-.76 4.69-1.33 8.06-.83 1.88 2.53 1.34 1.07 1.03 4.74-2.6 2.97-6.13 2.65-10.88 3.55.05 4.26-.35 8.47 1.32 12.26 3.67 2.13 3.08 1.32 8.36.71 2.35-.56 1.23-.44 3.34-.46l1.42 2.49c-2.84 5.2-12.27 7.14-17.64 8.5-1.23-6.61-5.64-40.07-4.26-45.58 2.98-2.49 5.76-2.51 9.65-3.19m-120.007 21.14c.518-.1 2.513-.07 3.129-.07l1.195 1.62c-.072 10.68-5.96 3.46-11.768 9.55-3.153 12.33 4.881 5.02 10.879 9.12l.329 2.99c-2.457 3.72-4.008 2.27-9.453 5.36-2.028 3.59-1.187 3.35-.65 8.44.338 5.36 1.681 8.26-2.795 11.46l-1.865-.79c-3.391-7.46-2.66-34.3-3.439-45.21 4.418-.9 9.918-1.7 14.438-2.47m136.097-94.85 3.43.92c3.08 4.41 4.39 30.2 5.33 37.72 4.26-1.17 7.34-2.54 11.16-1.03 1.13 3.34.7 2.53-.08 6.5-6.58 1.63-9.89 2.03-16.57 2.77-1.44-8.49-6.37-40.45-3.27-46.88"/>
  <path fill="#3c2971" d="M324.189 1021.04c1.591-4.43 3.75-10.5 8.521-12.42 12.071-4.88 177.126 75.58 203.147 88.88a2472 2472 0 0 1 67.46 36.66c15.646 8.79 56.336 32.91 68.996 44.31-2.621 4.56-5.512 9.37-7.948 14 2.855 33.54 7.827 68.15 11.693 101.71l31.72 270.03c2.125 19.96 4.367 39.9 6.726 59.84.995 8.37 5.415 30.45 1.584 36.54-5.233 2.8-20.087-7.12-25.686-10.06l-55.714-29.19-138.385-71.31c-18.713-9.34-37.262-19-55.638-28.99-8.008-4.29-19.885-10.03-26.992-15.1-5.039-23.8-7.637-50.87-13.133-73.5-3.945-24.1-7.088-49.4-12.115-73.18 41.112-30.06 51.842-58.35 44.003-109.02-10.147-37.65-40.329-54.69-76.115-61.44-2.909-12.04-5.759-31.09-8.132-43.79l-14.872-77.73c-2.205-11.85-5.871-35.43-9.12-46.24"/>
  <path fill="#734b8b" d="M324.189 1021.04c1.591-4.43 3.75-10.5 8.521-12.42 12.071-4.88 177.126 75.58 203.147 88.88a2472 2472 0 0 1 67.46 36.66c15.646 8.79 56.336 32.91 68.996 44.31-2.621 4.56-5.512 9.37-7.948 14-17.526-14.72-62.609-40.47-82.923-51.58a2273 2273 0 0 0-188.962-92.35c-14.282-6.29-55.314-24.31-68.291-27.5"/>
  <path fill="#1c3a70" d="M432.428 1250.24c15.641 10.29 25.631 31.33 29.467 49.41 11.044 52.05-21.712 95.08-59.315 126.92-1.704 1.44-1.824 3.84-2.04 5.87-3.945-24.1-7.088-49.4-12.115-73.18 41.112-30.06 51.842-58.35 44.003-109.02"/>
  <path fill="url(#b)" d="M1348.08 1447.52c52.26 26.65 104.19 47.27 164.94 41.31 14.65-1.43 30.36-6.3 44.54-10.44 3.15.79 9.47 2.24 11.68 4.28 9.48 8.75 13.06 22.99 19.15 34.24a106 106 0 0 0 22.36 28.44c49.48 44.01 143.26 53.88 188.37 109.51 24.26 30.14 35.2 60.58 33.35 100.18-1.17 25.04-19.99 64.14-50.13 65.19-11.22.39-18.97-24.13-27.32-34.07-22.42-26.69-47.12-33.61-81.04-37.17-24.6-3.19-53.78-.57-79.97-2.98-85.4-7.87-165.91-60.21-195.43-142.68-3.05-8.51-9.02-30.09-13.91-36.05l-1.87.43c-6.44 6.3-9.22 16.53-8.83 25.21 2.24 49.2 31.43 79.63 63.05 111.15-31.1 17.97-93.98-2.38-114.7-32.39-2.12-17.41-2.86-38.56-4.55-56.57 31.71-7.06 38.38-9.17 37.35-43.52-1.21-40.2-7.38-84.21-7.04-124.07"/>
  <path fill="#e94901" d="M1651.72 1413.59c26.71 1.92 44.8-2.26 66.3-19 31.99-24.92 37.05-52.65 43.44-90.43 7.65-45.26 13.73-103.5 44.16-139.39a92.68 92.68 0 0 1 63.45-32.69c11-.83 20.25.21 28.85 7.51 2.22 2.09 3.15 2.46 3.77 5.38-1.12 4.46-6.76 10.63-9.84 14.5-16.75 20.98-25.07 38.13-27.62 65.01-4.38 46.27 14.64 86.35 23.59 129.81 17.18 83.39-1.78 169.25-78.72 215.41a153.15 153.15 0 0 1-63.88 21.71c-8.51-4.14-23.26-11.45-31.59-14.44-55.37-19.82-94.54-33.48-115.69-93.94-2.71-7.75-5.12-16.32-7.48-24.41 16.2-15.44 29.59-31.96 40.36-51.59z"/>
  <path fill="#f76c02" d="M1651.72 1413.59c26.71 1.92 44.8-2.26 66.3-19 31.99-24.92 37.05-52.65 43.44-90.43 7.65-45.26 13.73-103.5 44.16-139.39a92.68 92.68 0 0 1 63.45-32.69c11-.83 20.25.21 28.85 7.51-3.22 1.8-4.71 4.19-6.47 5.17-44.39 24.66-44.38 86.35-43.42 130.53 1.31 60.36 24.45 150.29-38.3 188.18-28.43 16.12-62.43 18.53-93.6 8.82-27.86-8.69-47.46-21.63-63.06-47.21-1.96-3.22-2.83-6.42-3-10.06z"/>
  <path fill="#e94901" d="M1289.07 1620.34c8.36-.29 9.48 26.55 9.79 32.72 3.06 61.02 29.54 118.5 94.7 130.74 7.84 1.48 15.91 1.36 23.62 3.03 6.76 15.48-26.59 43.43-39.36 49.6-59.62 28.81-140.11 27.06-202.27 7.76-80.27-29.46-137.97-86.63-143.49-174.68z"/>
  <path fill="#f76c02" d="M1201.81 1670.5c33.25.05 69.13 14.8 87.85 42.17 33.11 48.4 51.81 62.45 106.04 83.06a49 49 0 0 1-4.49 5.29c-16.22 16.8-58.37 24.02-80.96 24.55-11.99.04-36.89-.32-48.29-2.65-39.81-8.44-74.69-23.27-105.4-49.4-40.37-34.35-64.08-81.77 5.32-98.39 15.42-3.69 23.8-4.44 39.93-4.63m-736.657-111.44c29.143 13.46 59.953 31.96 89.131 46.7l77.447 39.64c10.944 5.63 32.163 15.86 41.671 22.06-21.558 35.16-63.149 58.75-103.332 68.26-39.966 9.46-72.361 4.02-99.621 40.33-27.525 36.66 41.529 67.23-3.364 73.27-65.836 8.85-136.867-37.46-144.644-105.59-.484-3.76-1.071-14.23.256-17.48-.007-1.76.089-3.51.287-5.26 6.852-57.12 63.706-101.57 105.675-134.59 7.635-9.02 25.677-22.65 36.494-27.34"/>
  <path fill="#fc8305" d="m428.659 1586.4.406 1.75c-5.156 4.74-22.91 17.33-26.249 22.9-.449.75.878 4.18 1.287 5.34-.855 2.2-.927 2.2-2.346 4.12 9.698 5.26 27.041-19.08 31.251-18.13-19.286 22-39.636 31.64-60.198 59.6a179.5 179.5 0 0 0-18.294 30.74c-2.798 6.15-7.101 17.8-10.419 22.79.735-5.11 9.252-28.9 12.867-31.12l-.377-1-4.451-.29-2.487-3.31c-2.827 2.92-4.975.5-11.132 6.23-8.187 7.61-12.19 35.25-15.82 40.23-.007-1.76.089-3.51.287-5.26 6.852-57.12 63.706-101.57 105.675-134.59"/>
  <path fill="#3c2971" d="M683.739 1209.38c.079-5.8.032-9.89 4.276-14.04 5.918-1.23 35.58 16.7 52.87 14.9 14.844-1.53 44.576-14.6 52.895-9.15 2.547 3.16 2.331 4.77 2.889 9.01.523 21.83 4.928 57.85 7.066 80.1 5.233 50.76 10.126 101.56 14.676 152.39l14.481 156.12c2.409 27.02 4.167 61.93 8.272 88.22-27.439 17.78-82.838 26.07-101.66-15.23-4.125-9.05-6.053-39.7-7.501-51.73l-11.499-99.35a13960 13960 0 0 0-18.461-155.19 6839 6839 0 0 1-18.304-156.05"/>
  <path fill="#734b8b" d="M683.739 1209.38c.079-5.8.032-9.89 4.276-14.04 5.918-1.23 35.58 16.7 52.87 14.9 14.844-1.53 44.576-14.6 52.895-9.15 2.547 3.16 2.331 4.77 2.889 9.01-1.287 1.23-2.348 1.95-4.085 2.62-24.99 9.67-50.859 17.01-77.52 9.15-11.605-3.43-20.57-8.18-31.325-12.49"/>
  <path fill="url(#c)" d="M128.791 1565.77c-.569-77.11 72.525-133.35 147.363-122.37 11.263 1.44 19.97 4.19 30.588 6.21 23.027 4.39 56.702 21.6 76.554 3.12 3.652 22.27 4.647 61.71 24.208 74.04 7.54 4.75 18.362 10.73 26.538 14.54-11.808 19.7-50.932 59.1-73.209 63.45-45.713 8.92-87.397-41.94-137.018-20.05a56.4 56.4 0 0 0-25.627 22.5 60 60 0 0 0-8.074 23.06c-.92 7.32 3.67 29.31-5.182 30.03-39.99 3.28-60.389-64.87-56.141-94.53"/>
  <path fill="#fc8305" d="M128.791 1565.77c-.569-77.11 72.525-133.35 147.363-122.37-9.025 2.35-24.599-2.45-30.2 1.28-.222 2.98-.06 3.37.422 6.36-1.203 2.28-3.357 3.14-5.66 4.5 3.155 1.81 13.903-1.14 21.285-.45-8.717 1.33-20.926 2.49-28.95 4.34a119.57 119.57 0 0 0-69.347 45.41c-8.102 11.16-17.481 28.58-21.125 41.95-2.937 10.78-3.659 17.4-8.206 27.85l.34-1.16c1.196-4.22 2.457-8.27-.099-12.2h-1.556c-2.531 3.39-3.123 8.39-3.599 12.64z"/>
  <path fill="url(#d)" d="M692.025 1677.6c28.892 12.47 33.987 15.33 56.037 34.71 17.482 15.36 64.515 15.22 84.439 5.43 7.657-3.76 17.821-9.36 26.165-12.2 23.205-5.43 48.387-10.07 71.84-14.04a92 92 0 0 1-2.149 6.55c-16.927 46.19-51.965 77.84-95.766 97.94a241.4 241.4 0 0 1-95.431 21.95c-47.546 1.12-121.633-14.98-156.212-48.16 7.877-2.23 15.532-4.69 23.049-7.96 16.423-7.14 58.603-29.97 70.316-42.17 11.583-12.06 18.387-25.23 17.712-42.05"/>
  <path fill="#fcddac" d="M781.312 1172.81c21.653-18.57 60.107-39.77 85.588-52.03a1127.6 1127.6 0 0 1 287.53-90.96c17.97-3.26 39.05-7.47 57.24-9.09 3.08-.28 5.56.87 7.71 3.1 1.68 4 .25 7.72-.96 11.86-.56 7.26-.83 9.55 1.21 16.78 23.69-2.83 34.13-4.06 52.36 13.65a8071 8071 0 0 0-315.98 65.06c-36.978 8.76-72.169 19.44-108.265 28.42-15.092 4.91-30.333 9.18-45.43 14.17-13.006 4.3-26.054 10.23-39.062 14 2.259-1.84 17.041-14.38 18.059-14.96"/>
  <path fill="#fcddac" d="M1219.63 1052.47c23.69-2.83 34.13-4.06 52.36 13.65a8071 8071 0 0 0-315.98 65.06c-36.978 8.76-72.169 19.44-108.265 28.42l-.755-1.24.367-1.28c97.514-54.16 228.773-82.98 339.133-100.94 10.8-1.76 22.24-2.09 33.14-3.67"/>
  <path fill="#da996c" d="M781.312 1172.81c5.521 2.45 29.296-11.19 35.532-14.19a1450 1450 0 0 1 63.18-29.05c23.42-9.84 43.541-16.09 67.357-23.94 45.41-15.3 91.439-28.68 137.979-40.11 22.07-5.63 44.29-10.67 66.63-15.13 14.7-3.01 55.95-8.33 66.43-14.7-.56 7.26-.83 9.55 1.21 16.78-10.9 1.58-22.34 1.91-33.14 3.67-110.36 17.96-241.619 46.78-339.133 100.94l-.367 1.28.755 1.24c-15.092 4.91-30.333 9.18-45.43 14.17-13.006 4.3-26.054 10.23-39.062 14 2.259-1.84 17.041-14.38 18.059-14.96"/>
  <path fill="#fcddac" d="M438.172 967.711c10.767-6.151 27.266 2.758 37.963 7.149 33.901 13.913 66.854 30.83 98.402 49.44 53.183 34.29 122.051 85.59 156.329 140.03 4.259 6.65 9.451 12.38 8.734 19.86-6.66 9.42-28.512-1.07-36.251-5.83-8.471-4.72-16.549-14.76-24.661-20.68-20.566-15-41.878-28.81-63.717-41.84a1345 1345 0 0 0-168.228-84.06c-24.002-10.11-48.361-18.74-71.805-28.56 3.356-10.156 6.309-14.316 14.854-20.783 7.933 1.494 14.768 2.364 22.775 4.273 10.631-1.831 15.325-12.68 25.605-18.999"/>
  <path fill="#fcddac" d="M438.172 967.711c10.767-6.151 27.266 2.758 37.963 7.149 33.901 13.913 66.854 30.83 98.402 49.44 53.183 34.29 122.051 85.59 156.329 140.03-4.084 1.67-6.183 2.49-10.474 2.42-7.404-3.51-25.239-25.31-32.589-32.94-59.563-61.81-132.794-103.58-211.98-135.225-8.309-3.321-34.258-12.468-38.685-18.683-1.462-4.029.034-7.797 1.034-12.191"/>
  <path fill="#da996c" d="M412.567 986.71c10.631-1.831 15.325-12.68 25.605-18.999-1 4.394-2.496 8.162-1.034 12.191 4.427 6.215 30.376 15.362 38.685 18.683 79.186 31.645 152.417 73.415 211.98 135.225 7.35 7.63 25.185 29.43 32.589 32.94 4.291.07 6.39-.75 10.474-2.42 4.259 6.65 9.451 12.38 8.734 19.86-6.66 9.42-28.512-1.07-36.251-5.83 4.46-2.31 5.994-2.66 7.938-6.95-.294-9.95-37.606-41.08-46.21-48.17a745.6 745.6 0 0 0-212.469-123.19c-9.743-3.676-30.096-11.622-40.041-13.34"/>
  <path fill="#f76c02" d="M344.589 1212.21c23.502-1.1 40.423 3.87 55.539 22.79 32.974 41.28 9.54 97.68-37.64 114.56-8.509 3.05-31.821 3.26-36.028 6.6.629 2.41 2.242 3.4 4.285 4.93 10.832 8.12 26.208 6.84 38.798 4.93 1.031 9.79 3.583 23.46 5.172 33.47l2.706 16.52c-6.462-1.51-12.66-2.86-19.072-4.8-40.303-12.2-78.939-43.01-87.083-86.2-4.658-24.71 2.151-55.89 16.674-76.74a88.46 88.46 0 0 1 56.649-36.06"/>
  <path fill="#1d4c7f" d="M269.981 139.182c36.146-1.857 67.225 13.035 74.732 51.3a82.84 82.84 0 0 1-12.817 62.409c-12.368 17.852-31.273 27.162-52.19 30.776-13.598 1.422-28.183-1.988-40.039-8.754a72.36 72.36 0 0 1-33.79-43.919 68.4 68.4 0 0 1 7.432-52.021c13.493-22.536 31.898-33.696 56.672-39.791"/>
  <path fill="#5088a9" d="M251.43 166.637c12.002-8.395 25.885-12.766 40.623-10.217a46.04 46.04 0 0 1 30.268 20.052 49.3 49.3 0 0 1 7.241 19.545c1.894 12.304 1.811 14.88-1.006 27.008-1.094 5.932-2.924 9.923-5.939 15.188l-5.398 8.633a57.5 57.5 0 0 1-14.661 12.35c-42.849 25.463-95.528-13.325-79.066-61.202 2.845-8.275 8.077-17.951 16.143-22.027 4.816-4.828 5.85-5.969 11.795-9.33"/>
  <path fill="#c2e9ec" d="M251.43 166.637c19.269 2.574 29.027 20.171 10.404 31.088-15.899 9.319-30.909-.976-22.199-21.758 4.816-4.828 5.85-5.969 11.795-9.33"/>
  <path fill="#74a6c1" d="m323.394 201.663 6.168-5.646c1.894 12.304 1.811 14.88-1.006 27.008-1.622-5.468-1.291-7.39-.873-13.122.712-5.093-.879-5.486-4.289-8.24"/>
  <path fill="#3a7da3" d="m327.683 209.903-1.501-.353c-3.959-6.127-7.326-3.547-11.168-8.391l1.474-.537c2.654.686 4.168.914 6.906 1.041 3.41 2.754 5.001 3.147 4.289 8.24m-35.575-43.224 1.436.632.61 1.982c-1.082 2.545-2.838 3.092-5.316 4.475-2.35-3.344-2.418-2.007-2.048-4.756zm4.612 38.846 1.583-1.027c-.157 2.038-.206 1.035.13 3.009 2.124-.456 2.097-.476 4.256-.331l.135 2.179.06 1.372-1.179.547c-3.191-.703-3.312-.408-5.447-2.754z"/>
  <path fill="#74a6c1" d="M288.367 246.755c1.039 8.067 3.42 6.679-1.996 13.439l-.104.234-.462-1.381c2.402-7.18-.249-6.753 2.562-12.292"/>
  <path fill="#1d4c7f" d="M220.489 361.523c23.746-3.253 45.643 13.329 48.949 37.067 3.306 23.737-13.227 45.672-36.958 49.03-23.805 3.369-45.823-13.227-49.139-37.04s13.329-45.793 37.148-49.057"/>
  <path fill="#5088a9" d="M213.631 379.746c13.717-9.34 30.562-8.788 39.587 6.471a31.85 31.85 0 0 1 3.392 24.888c-2.666 9.46-9.023 16.571-17.619 21.126-6.49 3.44-17.073 5.755-24.051 3.002-6.183-2.439-14.889-9.704-17.275-16.257-2.277-6.256-2.199-14.641.333-20.896.638-1.577 2.768-5.072 3.066-6.087 4.024-7.167 5.345-8.28 12.567-12.247"/>
  <path fill="#c2e9ec" d="M213.631 379.746c3.927 1.368 9.429 2.833 10.953 6.924 5.919 15.884-17.709 27.389-23.52 5.323 4.024-7.167 5.345-8.28 12.567-12.247"/>
  <path fill="#1d4c7f" d="M308.409 493.951a24.563 24.563 0 0 1 26.577 32.593 24.56 24.56 0 0 1-19.436 16.014c-13.461 2.048-26.019-7.243-27.998-20.714-1.98-13.472 7.376-25.983 20.857-27.893"/>
  <path fill="#5088a9" d="M309.133 503.011c21.991.961 24.992 19.726 6.699 29.744-19.762 1.804-26.471-20.022-6.699-29.744"/>
  <path fill="#3a7da3" d="M313.924 518.516c3.58.892 4.359 1.268 6.458 4.16l-.462 1.92-1.164 1.424c-1.704-3.116-2.744-4.608-4.832-7.504"/>
  <path fill="#e94901" d="M1745.44 489.381a23.46 23.46 0 0 1 23.59 6.359 23.46 23.46 0 0 1 5.16 23.886 23.48 23.48 0 0 1-15.54 14.792c-12.44 3.662-25.5-3.463-29.14-15.909-3.65-12.445 3.48-25.491 15.93-29.128M193.431 1070.51c10.504-1.99 20.671 4.79 22.867 15.25 2.197 10.47-4.384 20.76-14.802 23.16a19.61 19.61 0 0 1-18.938-5.93 19.64 19.64 0 0 1-4.078-19.43 19.64 19.64 0 0 1 14.951-13.05"/>
  <path fill="#08041d" fill-opacity=".02" d="M343.067 967.775c1.12 4.008.005 2.539 3.132 4.791l-3.599 3.511-1.514-.644c.366-4.758-.417-4.488 1.981-7.658"/>
</svg>
